<svg width="358" height="36" viewBox="0 0 358 36" fill="none" xmlns="http://www.w3.org/2000/svg">
<path d="M14.33 5.17999C18.082 5.17999 21.316 6.36999 24.032 8.74999L20.546 12.404C19.51 11.62 18.544 11.06 17.648 10.724C16.78 10.36 15.772 10.178 14.624 10.178C12.468 10.178 10.746 11.032 9.45799 12.74C8.16999 14.42 7.52599 16.982 7.52599 20.426C7.52599 24.15 8.01599 26.796 8.99599 28.364C9.97599 29.904 11.502 30.674 13.574 30.674C15.03 30.674 16.346 30.352 17.522 29.708V23.114H13.742L13.07 18.242H24.2V32.648C22.688 33.628 21.022 34.384 19.202 34.916C17.382 35.448 15.562 35.714 13.742 35.714C9.31799 35.714 5.98599 34.426 3.74599 31.85C1.50599 29.246 0.385986 25.438 0.385986 20.426C0.385986 17.234 0.987986 14.49 2.19199 12.194C3.42399 9.89799 5.08999 8.16199 7.18999 6.98599C9.31799 5.78199 11.698 5.17999 14.33 5.17999Z" fill="#141414"/>
<path d="M47.4903 35H41.7363L41.4423 32.186C39.8183 34.538 37.5643 35.714 34.6803 35.714C32.6363 35.714 31.0823 35.098 30.0183 33.866C28.9823 32.634 28.4643 30.912 28.4643 28.7V12.698H35.1003V27.86C35.1003 28.952 35.2683 29.722 35.6043 30.17C35.9683 30.59 36.5143 30.8 37.2423 30.8C38.6423 30.8 39.8463 29.932 40.8543 28.196V12.698H47.4903V35Z" fill="#141414"/>
<path d="M59.3455 12.698V35H52.7095V12.698H59.3455ZM55.9855 0.937988C57.1335 0.937988 58.0715 1.30199 58.7995 2.02999C59.5555 2.72999 59.9335 3.62599 59.9335 4.71799C59.9335 5.80999 59.5555 6.71999 58.7995 7.44799C58.0715 8.14799 57.1335 8.49799 55.9855 8.49799C54.8375 8.49799 53.8995 8.14799 53.1715 7.44799C52.4435 6.71999 52.0795 5.80999 52.0795 4.71799C52.0795 3.62599 52.4435 2.72999 53.1715 2.02999C53.8995 1.30199 54.8375 0.937988 55.9855 0.937988Z" fill="#141414"/>
<path d="M70.485 35.714C68.553 35.714 67.041 35.168 65.949 34.076C64.885 32.956 64.353 31.374 64.353 29.33V3.83599L70.989 3.12199V29.078C70.989 30.002 71.367 30.464 72.123 30.464C72.515 30.464 72.879 30.394 73.215 30.254L74.517 34.958C73.313 35.462 71.969 35.714 70.485 35.714Z" fill="#141414"/>
<path d="M90.0937 11.984C92.0257 11.984 93.5377 12.572 94.6297 13.748C95.7217 14.924 96.2677 16.576 96.2677 18.704V35H89.6317V19.838C89.6317 18.718 89.4497 17.948 89.0857 17.528C88.7217 17.08 88.2037 16.856 87.5317 16.856C86.1877 16.856 84.8997 17.808 83.6677 19.712V35H77.0317V3.83599L83.6677 3.16399V15.092C84.5917 14.056 85.5717 13.286 86.6077 12.782C87.6437 12.25 88.8057 11.984 90.0937 11.984Z" fill="#141414"/>
<path d="M120.718 23.408C120.718 24.332 120.676 25.13 120.592 25.802H106.774C106.998 27.678 107.53 28.994 108.37 29.75C109.21 30.506 110.372 30.884 111.856 30.884C112.752 30.884 113.62 30.73 114.46 30.422C115.3 30.086 116.21 29.582 117.19 28.91L119.92 32.606C117.316 34.678 114.418 35.714 111.226 35.714C107.614 35.714 104.842 34.65 102.91 32.522C100.978 30.394 100.012 27.538 100.012 23.954C100.012 21.686 100.418 19.656 101.23 17.864C102.042 16.044 103.232 14.616 104.8 13.58C106.368 12.516 108.244 11.984 110.428 11.984C113.648 11.984 116.168 12.992 117.988 15.008C119.808 17.024 120.718 19.824 120.718 23.408ZM114.208 21.518C114.152 18.102 112.948 16.394 110.596 16.394C109.448 16.394 108.552 16.814 107.908 17.654C107.292 18.494 106.914 19.88 106.774 21.812H114.208V21.518Z" fill="#141414"/>
<path d="M136.542 12.068C137.354 12.068 138.096 12.166 138.768 12.362L137.718 18.788C136.878 18.592 136.206 18.494 135.702 18.494C134.386 18.494 133.378 18.956 132.678 19.88C132.006 20.776 131.474 22.134 131.082 23.954V35H124.446V12.698H130.242L130.788 17.024C131.292 15.484 132.048 14.28 133.056 13.412C134.092 12.516 135.254 12.068 136.542 12.068Z" fill="#141414"/>
<path d="M165.957 11.984C167.721 11.984 169.135 12.586 170.199 13.79C171.263 14.966 171.795 16.604 171.795 18.704V35H165.159V19.838C165.159 17.85 164.529 16.856 163.269 16.856C162.569 16.856 161.953 17.094 161.421 17.57C160.889 18.046 160.371 18.774 159.867 19.754V35H153.231V19.838C153.231 17.85 152.601 16.856 151.341 16.856C150.669 16.856 150.053 17.108 149.493 17.612C148.961 18.088 148.443 18.802 147.939 19.754V35H141.303V12.698H147.099L147.561 15.302C148.429 14.182 149.381 13.356 150.417 12.824C151.481 12.264 152.685 11.984 154.029 11.984C155.289 11.984 156.367 12.292 157.263 12.908C158.187 13.524 158.859 14.392 159.279 15.512C160.175 14.308 161.155 13.426 162.219 12.866C163.311 12.278 164.557 11.984 165.957 11.984Z" fill="#141414"/>
<path d="M196.228 23.408C196.228 24.332 196.186 25.13 196.102 25.802H182.284C182.508 27.678 183.04 28.994 183.88 29.75C184.72 30.506 185.882 30.884 187.366 30.884C188.262 30.884 189.13 30.73 189.97 30.422C190.81 30.086 191.72 29.582 192.7 28.91L195.43 32.606C192.826 34.678 189.928 35.714 186.736 35.714C183.124 35.714 180.352 34.65 178.42 32.522C176.488 30.394 175.522 27.538 175.522 23.954C175.522 21.686 175.928 19.656 176.74 17.864C177.552 16.044 178.742 14.616 180.31 13.58C181.878 12.516 183.754 11.984 185.938 11.984C189.158 11.984 191.678 12.992 193.498 15.008C195.318 17.024 196.228 19.824 196.228 23.408ZM189.718 21.518C189.662 18.102 188.458 16.394 186.106 16.394C184.958 16.394 184.062 16.814 183.418 17.654C182.802 18.494 182.424 19.88 182.284 21.812H189.718V21.518Z" fill="#141414"/>
<path d="M229.956 5.89399L229.284 11.186H222.102V35H215.214V11.186H207.696V5.89399H229.956Z" fill="#141414"/>
<path d="M243.428 12.068C244.24 12.068 244.983 12.166 245.655 12.362L244.605 18.788C243.765 18.592 243.093 18.494 242.589 18.494C241.273 18.494 240.264 18.956 239.564 19.88C238.892 20.776 238.361 22.134 237.969 23.954V35H231.333V12.698H237.129L237.674 17.024C238.178 15.484 238.935 14.28 239.943 13.412C240.979 12.516 242.14 12.068 243.428 12.068Z" fill="#141414"/>
<path d="M266.364 23.408C266.364 24.332 266.322 25.13 266.238 25.802H252.42C252.644 27.678 253.176 28.994 254.016 29.75C254.856 30.506 256.018 30.884 257.502 30.884C258.398 30.884 259.266 30.73 260.106 30.422C260.946 30.086 261.856 29.582 262.836 28.91L265.566 32.606C262.962 34.678 260.064 35.714 256.872 35.714C253.26 35.714 250.488 34.65 248.556 32.522C246.624 30.394 245.658 27.538 245.658 23.954C245.658 21.686 246.064 19.656 246.876 17.864C247.688 16.044 248.878 14.616 250.446 13.58C252.014 12.516 253.89 11.984 256.074 11.984C259.294 11.984 261.814 12.992 263.634 15.008C265.454 17.024 266.364 19.824 266.364 23.408ZM259.854 21.518C259.798 18.102 258.594 16.394 256.242 16.394C255.094 16.394 254.198 16.814 253.554 17.654C252.938 18.494 252.56 19.88 252.42 21.812H259.854V21.518Z" fill="#141414"/>
<path d="M288.958 12.698L281.944 35H274.09L266.908 12.698H274.132L278.08 29.96L282.196 12.698H288.958Z" fill="#141414"/>
<path d="M310.415 23.408C310.415 24.332 310.373 25.13 310.289 25.802H296.471C296.695 27.678 297.227 28.994 298.067 29.75C298.907 30.506 300.069 30.884 301.553 30.884C302.449 30.884 303.317 30.73 304.157 30.422C304.997 30.086 305.907 29.582 306.887 28.91L309.617 32.606C307.013 34.678 304.115 35.714 300.923 35.714C297.311 35.714 294.539 34.65 292.607 32.522C290.675 30.394 289.709 27.538 289.709 23.954C289.709 21.686 290.115 19.656 290.927 17.864C291.739 16.044 292.929 14.616 294.497 13.58C296.065 12.516 297.941 11.984 300.125 11.984C303.345 11.984 305.865 12.992 307.685 15.008C309.505 17.024 310.415 19.824 310.415 23.408ZM303.905 21.518C303.849 18.102 302.645 16.394 300.293 16.394C299.145 16.394 298.249 16.814 297.605 17.654C296.989 18.494 296.611 19.88 296.471 21.812H303.905V21.518Z" fill="#141414"/>
<path d="M320.065 35.714C318.133 35.714 316.621 35.168 315.529 34.076C314.465 32.956 313.933 31.374 313.933 29.33V3.83599L320.569 3.12199V29.078C320.569 30.002 320.947 30.464 321.703 30.464C322.095 30.464 322.459 30.394 322.795 30.254L324.097 34.958C322.893 35.462 321.549 35.714 320.065 35.714Z" fill="#141414"/>
<path d="M333.248 12.698V35H326.612V12.698H333.248ZM329.888 0.937988C331.036 0.937988 331.974 1.30199 332.702 2.02999C333.458 2.72999 333.836 3.62599 333.836 4.71799C333.836 5.80999 333.458 6.71999 332.702 7.44799C331.974 8.14799 331.036 8.49799 329.888 8.49799C328.74 8.49799 327.802 8.14799 327.074 7.44799C326.346 6.71999 325.982 5.80999 325.982 4.71799C325.982 3.62599 326.346 2.72999 327.074 2.02999C327.802 1.30199 328.74 0.937988 329.888 0.937988Z" fill="#141414"/>
<path d="M351.527 11.984C353.459 11.984 354.971 12.572 356.063 13.748C357.155 14.924 357.701 16.576 357.701 18.704V35H351.065V19.838C351.065 18.718 350.883 17.948 350.519 17.528C350.183 17.08 349.665 16.856 348.965 16.856C347.621 16.856 346.333 17.822 345.101 19.754V35H338.465V12.698H344.261L344.723 15.344C345.675 14.224 346.697 13.384 347.789 12.824C348.909 12.264 350.155 11.984 351.527 11.984Z" fill="#141414"/>
</svg>
